<svg width="24" height="24" viewBox="0 0 24 24" fill="none" xmlns="http://www.w3.org/2000/svg">
<path d="M15.4286 15.4286V18.8571C15.4286 19.1602 15.3082 19.4509 15.0938 19.6653C14.8795 19.8796 14.5888 20 14.2857 20H5.14286C4.83975 20 4.54906 19.8796 4.33474 19.6653C4.12041 19.4509 4 19.1602 4 18.8571V5.14286C4 4.83975 4.12041 4.54906 4.33474 4.33474C4.54906 4.12041 4.83975 4 5.14286 4H14.2857C14.5888 4 14.8795 4.12041 15.0938 4.33474C15.3082 4.54906 15.4286 4.83975 15.4286 5.14286V8.57143" stroke="black" stroke-width="2" stroke-linecap="round" stroke-linejoin="round"/>
<path d="M17.6737 10.2451L20 12L17.6737 13.7548" stroke="black" stroke-width="2" stroke-linecap="round" stroke-linejoin="round"/>
<path d="M20.0001 12H10.2858" stroke="black" stroke-width="2" stroke-linecap="round" stroke-linejoin="round"/>
</svg>
