<svg width="24" height="24" viewBox="0 0 24 24" fill="none" xmlns="http://www.w3.org/2000/svg">
<path d="M5 6.28572H18.7143M9.57141 6.28571V4.57143C9.57141 4.41988 9.63161 4.27453 9.73878 4.16737C9.84594 4.0602 9.99129 4 10.1428 4H13.5714C13.723 4 13.8683 4.0602 13.9755 4.16737C14.0826 4.27453 14.1428 4.41988 14.1428 4.57143V6.28571M9.57141 11.4286L10.1428 17.1429M14.1428 11.4286L13.5714 17.1429M15.8571 20H7.85712C6.91035 20 6.71427 19.2325 6.71427 18.2857L5.63099 6.91133C5.62344 6.83208 5.63254 6.75212 5.65769 6.67659C5.68285 6.60106 5.72351 6.53162 5.77706 6.47272C5.83062 6.41382 5.89589 6.36676 5.9687 6.33456C6.0415 6.30236 6.12023 6.28572 6.19984 6.28572H17.5144C17.594 6.28572 17.6727 6.30236 17.7455 6.33456C17.8184 6.36676 17.8836 6.41382 17.9372 6.47272C17.9907 6.53162 18.0314 6.60106 18.0566 6.67659C18.0817 6.75212 18.0908 6.83208 18.0833 6.91133L17 18.2857C17 19.2325 16.8039 20 15.8571 20Z" stroke="black" stroke-width="2" stroke-linecap="round" stroke-linejoin="round"/>
</svg>
