<svg width="24" height="24" viewBox="0 0 24 24" fill="none" xmlns="http://www.w3.org/2000/svg">
<path d="M14.9091 18.0909V16.6364C14.9091 15.8648 14.6026 15.1249 14.057 14.5793C13.5115 14.0338 12.7715 13.7273 12 13.7273H6.90909C6.13755 13.7273 5.39761 14.0338 4.85205 14.5793C4.30649 15.1249 4 15.8648 4 16.6364V18.0909M17.8182 8.63636V13M20 10.8182H15.6364M12.3636 7.90909C12.3636 9.51574 11.0612 10.8182 9.45455 10.8182C7.8479 10.8182 6.54545 9.51574 6.54545 7.90909C6.54545 6.30244 7.8479 5 9.45455 5C11.0612 5 12.3636 6.30244 12.3636 7.90909Z" stroke="black" stroke-width="2" stroke-linecap="round" stroke-linejoin="round"/>
</svg>
