<svg width="24" height="24" viewBox="0 0 24 24" fill="none" xmlns="http://www.w3.org/2000/svg">
<path d="M9.44568 10.2857C9.63985 10.0684 9.86064 9.8764 10.1028 9.71428C10.7896 9.25858 11.6175 9.06552 12.435 9.17047C13.2525 9.27541 14.0048 9.67132 14.5542 10.2857M13.1428 20C13.1428 19.0907 13.504 18.2186 14.147 17.5756C14.79 16.9327 15.6621 16.5714 16.5714 16.5714C17.4807 16.5714 18.3528 16.9327 18.9958 17.5756C19.6387 18.2186 20 19.0907 20 20M4 20C4 19.0907 4.36122 18.2186 5.00421 17.5756C5.64719 16.9327 6.51926 16.5714 7.42857 16.5714C8.33788 16.5714 9.20995 16.9327 9.85294 17.5756C10.4959 18.2186 10.8571 19.0907 10.8571 20M14.2857 6.28571C14.2857 7.54808 13.2623 8.57143 11.9999 8.57143C10.7376 8.57143 9.71423 7.54808 9.71423 6.28571C9.71423 5.02335 10.7376 4 11.9999 4C13.2623 4 14.2857 5.02335 14.2857 6.28571ZM18.8572 13.7143C18.8572 14.9766 17.8338 16 16.5715 16C15.3091 16 14.2858 14.9766 14.2858 13.7143C14.2858 12.4519 15.3091 11.4286 16.5715 11.4286C17.8338 11.4286 18.8572 12.4519 18.8572 13.7143ZM9.71425 13.7143C9.71425 14.9766 8.6909 16 7.42854 16C6.16617 16 5.14282 14.9766 5.14282 13.7143C5.14282 12.4519 6.16617 11.4286 7.42854 11.4286C8.6909 11.4286 9.71425 12.4519 9.71425 13.7143Z" stroke="black" stroke-width="2" stroke-linecap="round" stroke-linejoin="round"/>
</svg>
